<?xml version="1.0" encoding="utf-8"?>
<!-- Generator: Adobe Illustrator 19.2.0, SVG Export Plug-In . SVG Version: 6.00 Build 0)  -->
<svg version="1.1" id="Слой_1" xmlns="http://www.w3.org/2000/svg" xmlns:xlink="http://www.w3.org/1999/xlink" x="0px" y="0px"
	 viewBox="0 0 94 50" style="enable-background:new 0 0 94 50;" xml:space="preserve">
<style type="text/css">
	.st0{fill:#414042;}
</style>
<g>
	<g id="WhatsApp_17_">
		<path class="st0" d="M49.4,24.7c0,13-10.7,23.6-23.8,23.6c-4.2,0-8.1-1.1-11.5-2.9L1,49.6l4.3-12.7c-2.2-3.6-3.4-7.7-3.4-12.2
			c0-13,10.7-23.6,23.8-23.6C38.8,1.1,49.4,11.7,49.4,24.7z M25.6,4.9c-11,0-20,8.9-20,19.8c0,4.3,1.4,8.4,3.8,11.6l-2.5,7.4
			l7.7-2.4c3.2,2.1,6.9,3.3,11,3.3c11,0,20-8.9,20-19.8S36.7,4.9,25.6,4.9z M37.6,30.1c-0.1-0.2-0.5-0.4-1.1-0.7
			c-0.6-0.3-3.5-1.7-4-1.9c-0.5-0.2-0.9-0.3-1.3,0.3c-0.4,0.6-1.5,1.9-1.8,2.3c-0.3,0.4-0.7,0.4-1.3,0.1c-0.6-0.3-2.5-0.9-4.7-2.9
			c-1.7-1.5-2.9-3.4-3.2-4c-0.3-0.6,0-0.9,0.3-1.2c0.3-0.3,0.6-0.7,0.9-1c0.3-0.3,0.4-0.6,0.6-1c0.2-0.4,0.1-0.7,0-1
			c-0.1-0.3-1.3-3.1-1.8-4.3c-0.5-1.2-1-1-1.3-1c-0.3,0-0.7,0-1.1,0s-1,0.1-1.6,0.7c-0.5,0.6-2,2-2,4.8c0,2.8,2.1,5.6,2.4,6
			c0.3,0.4,4,6.4,10,8.7c5.9,2.3,5.9,1.5,7,1.4c1.1-0.1,3.4-1.4,3.9-2.7C37.8,31.5,37.8,30.4,37.6,30.1z"/>
	</g>
	<g>
		<g>
			<circle class="st0" cx="64.1" cy="8.4" r="4.4"/>
		</g>
		<g>
			<circle class="st0" cx="75.8" cy="8.4" r="4.4"/>
		</g>
		<g>
			<circle class="st0" cx="87.6" cy="8.4" r="4.4"/>
		</g>
		<g>
			<circle class="st0" cx="64.1" cy="20" r="4.4"/>
		</g>
		<g>
			<circle class="st0" cx="75.8" cy="20" r="4.4"/>
		</g>
		<g>
			<circle class="st0" cx="87.6" cy="20" r="4.4"/>
		</g>
		<g>
			<circle class="st0" cx="64" cy="31.5" r="4.4"/>
		</g>
		<g>
			<circle class="st0" cx="75.7" cy="31.5" r="4.4"/>
		</g>
		<g>
			<circle class="st0" cx="87.5" cy="31.5" r="4.4"/>
		</g>
		<g>
			<circle class="st0" cx="75.7" cy="43.1" r="4.4"/>
		</g>
	</g>
</g>
</svg>
