<?xml version="1.0" encoding="utf-8"?>
<!-- Generator: Adobe Illustrator 19.2.0, SVG Export Plug-In . SVG Version: 6.00 Build 0)  -->
<svg version="1.1" id="Слой_1" xmlns="http://www.w3.org/2000/svg" xmlns:xlink="http://www.w3.org/1999/xlink" x="0px" y="0px"
	 viewBox="0 0 783 234" style="enable-background:new 0 0 783 234;" xml:space="preserve">
<style type="text/css">
	.st0{fill:#EC2227;stroke:#FFFFFF;stroke-width:3;stroke-miterlimit:10;}
	.st1{stroke:#FFFFFF;stroke-width:3;stroke-miterlimit:10;}
	.st2{fill:#FFFFFF;}
</style>
<path class="st0" d="M121.7,18.3C92,42.2,62.3,66.1,32.5,90c-5.5,15.4-10.9,30.8-16.4,46.1c12.1,23.5,24.2,47,36.2,70.5
	c81.4,0,162.7,0,244.1,0c0-62.7,0-125.3,0-188c-17.2,0-34.3,0-51.5,0c0,47.8,0,95.6,0,143.4c-17.4,0-34.8,0-52.2,0
	c16.8-23.8,33.6-47.5,50.3-71.3c-17.3,0-34.6,0-51.9,0c-26.8,37.8-53.6,75.5-80.5,113.3c-15.4-30.1-30.8-60.3-46.1-90.4
	c38.9-31.9,77.8-63.8,116.7-95.7C161.4,18.1,141.6,18.2,121.7,18.3z"/>
<path class="st1" d="M361.2,176.9c-4.1,0.4-10.1,0.6-17.3-0.2c-8.7-1-19.1-2.2-28.9-9.7c-6.8-5.2-10.2-11.1-11.2-13.1
	c-5.2-9.6-5.1-18.8-5-23.5c0.7-25.5,19.2-44.5,25.6-51c3.9-4,16.9-16.6,38.2-24.5c12.9-4.8,24.4-6.1,32.3-6.5c20.2,0,40.4,0,60.6,0
	c-15.5,42.9-31,85.9-46.4,128.8c-11.4,0-22.8,0-34.1,0c11.8-32.8,23.5-65.5,35.3-98.3c-8.5,0-17.1,0-25.6,0
	c-4.8,0.7-33.6,5.1-45.3,27.9c-2.1,4.2-7.1,14-3.3,23.5c4.4,11,18.8,17.9,36.1,16.4C368.6,156.9,364.9,166.9,361.2,176.9z"/>
<path class="st1" d="M439.7,128.2c3.6-10.3,7.2-20.5,10.9-30.8c19.2-16.4,38.4-32.9,57.6-49.3c13.6,0,27.3,0,40.9,0
	c-25.3,21.5-50.5,42.9-75.8,64.4c8.8,20.2,17.7,40.4,26.5,60.6c17.7-25.2,35.5-50.3,53.2-75.5c11.7,0,23.4,0,35.1,0
	c-11.6,16.4-23.3,32.7-34.9,49.1c12.1,0,24.2,0,36.3,0c0-32.7,0-65.3,0-98c11,0,21.9,0,32.9,0c0,40.8,0,81.6,0,122.4
	c3.8-8.2,7.7-16.5,11.5-24.7c5.2,0,10.4,0,15.6,0c11.5-16.5,22.9-32.9,34.4-49.4c11.8,0,23.6,0,35.5,0
	c-11.5,16.4-23.1,32.8-34.6,49.2c11.6,0,23.3,0,34.9,0c0-32.5,0-65,0-97.5c12.2,0,24.3,0,36.5,0c0,32.5,0,65,0,97.5
	c4.3,0,8.6,0,12.9,0c-3.7,10.3-7.4,20.5-11.2,30.8c-99,0-198,0-297,0C453.9,160.8,446.8,144.5,439.7,128.2z"/>
<g>
	<path class="st2" d="M373.2,193.3h-5.5v-2h13.4v2h-5.5v16.1h-2.4V193.3z"/>
	<path class="st2" d="M392.7,191.6c1-0.2,2.7-0.4,4.3-0.4c2.3,0,3.8,0.4,5,1.3c0.9,0.7,1.5,1.8,1.5,3.2c0,1.8-1.2,3.3-3.1,4v0.1
		c1.7,0.4,3.7,1.8,3.7,4.5c0,1.6-0.6,2.8-1.6,3.6c-1.2,1.2-3.3,1.7-6.2,1.7c-1.6,0-2.9-0.1-3.6-0.2V191.6z M395,199h2.1
		c2.4,0,3.9-1.3,3.9-3.1c0-2.1-1.6-3-4-3c-1.1,0-1.7,0.1-2.1,0.2V199z M395,207.6c0.5,0.1,1.1,0.1,2,0.1c2.4,0,4.7-0.9,4.7-3.5
		c0-2.4-2.1-3.5-4.7-3.5H395V207.6z"/>
	<path class="st2" d="M432,200.2c0,6.2-3.8,9.5-8.4,9.5c-4.8,0-8.1-3.7-8.1-9.2c0-5.8,3.6-9.5,8.4-9.5
		C428.8,191,432,194.8,432,200.2z M417.9,200.4c0,3.9,2.1,7.4,5.8,7.4c3.7,0,5.8-3.4,5.8-7.5c0-3.6-1.9-7.4-5.8-7.4
		S417.9,196.5,417.9,200.4z"/>
	<path class="st2" d="M444.6,191.5c1.1-0.2,2.6-0.3,4.5-0.3c2.3,0,4,0.5,5.1,1.5c1,0.9,1.6,2.2,1.6,3.8c0,1.6-0.5,2.9-1.4,3.9
		c-1.3,1.3-3.3,2-5.5,2c-0.7,0-1.3,0-1.9-0.2v7.3h-2.3V191.5z M446.9,200.2c0.5,0.1,1.2,0.2,1.9,0.2c2.8,0,4.5-1.4,4.5-3.8
		c0-2.4-1.7-3.6-4.3-3.6c-1,0-1.8,0.1-2.2,0.2V200.2z"/>
	<path class="st2" d="M470.5,191.3v5.8c0,2.5,1.3,3.9,3.8,3.9c1.3,0,2.7-0.4,3.6-1.1v-8.7h2.3v18.2h-2.3v-7.7h-0.1
		c-1.3,0.7-2.8,1.1-4.4,1.1c-2.4,0-5.4-1-5.4-5.4v-6.2H470.5z"/>
	<path class="st2" d="M503.2,200.9h-7v6.5h7.9v2h-10.2v-18.1h9.8v2h-7.5v5.7h7V200.9z"/>
	<path class="st2" d="M529.3,208.8c-0.8,0.4-2.6,0.9-4.8,0.9c-5.1,0-8.9-3.2-8.9-9.2c0-5.7,3.8-9.5,9.5-9.5c2.2,0,3.7,0.5,4.3,0.8
		l-0.6,1.9c-0.9-0.4-2.1-0.8-3.6-0.8c-4.3,0-7.1,2.7-7.1,7.5c0,4.5,2.6,7.3,6.9,7.3c1.5,0,2.9-0.3,3.8-0.8L529.3,208.8z"/>
	<path class="st2" d="M544.1,191.3v8h0.7l6.2-8h2.8l-6.9,8.3c3,0.4,4.2,2.2,5.1,4.7c0.7,1.9,1.2,3.5,2,5.1h-2.5
		c-0.7-1.2-1.2-2.9-1.7-4.3c-0.8-2.4-2-4-5-4h-0.8v8.3h-2.3v-18.1H544.1z"/>
	<path class="st2" d="M568.9,203.7l-1.9,5.7h-2.4l6.2-18.1h2.8l6.2,18.1h-2.5l-1.9-5.7H568.9z M574.9,201.9l-1.8-5.2
		c-0.4-1.2-0.7-2.3-0.9-3.3h-0.1c-0.3,1-0.5,2.2-0.9,3.3l-1.8,5.2H574.9z"/>
	<path class="st2" d="M590.3,209.4c0.3-0.5,0.5-1,0.8-1.6c0.8-2.1,1.2-4.6,2.7-6.1c0.4-0.4,1-0.8,1.5-0.9v-0.1c-2.3-0.4-4-2-4-4.5
		c0-1.6,0.6-2.9,1.7-3.7c1.1-0.9,2.9-1.4,5.2-1.4c1.5,0,3.1,0.1,4.3,0.4v17.9h-2.3v-7.9h-1.7c-1.1,0-1.9,0.2-2.6,0.9
		c-1.3,1.3-1.7,3.9-2.4,5.6c-0.2,0.5-0.3,0.8-0.6,1.3H590.3z M600.1,193.2c-0.4-0.1-1.2-0.2-2.2-0.2c-2.3,0-4.2,0.9-4.2,3.4
		c0,2.2,1.9,3.4,4.5,3.4c0.8,0,1.5,0,2-0.1V193.2z"/>
	<path class="st2" d="M641,191.3v2h-7.3v16.2h-2.4v-18.1H641z"/>
	<path class="st2" d="M652.5,191.5c1.1-0.2,2.6-0.3,4.5-0.3c2.3,0,4,0.5,5.1,1.5c1,0.9,1.6,2.2,1.6,3.8c0,1.6-0.5,2.9-1.4,3.9
		c-1.3,1.3-3.3,2-5.5,2c-0.7,0-1.3,0-1.9-0.2v7.3h-2.3V191.5z M654.8,200.2c0.5,0.1,1.2,0.2,1.9,0.2c2.8,0,4.5-1.4,4.5-3.8
		c0-2.4-1.7-3.6-4.3-3.6c-1,0-1.8,0.1-2.2,0.2V200.2z"/>
	<path class="st2" d="M676.7,191.3l3.6,7.8c0.5,1.1,0.9,2.1,1.3,3.2h0.1c0.3-0.9,0.7-2,1.1-3.3l2.9-7.7h2.5l-3.8,9.4
		c-1,2.4-2.1,5.2-3.4,6.9c-1.2,1.5-2.5,2.2-4.1,2.2c-0.6,0-1-0.1-1.3-0.2l0.2-1.9c0.2,0.1,0.5,0.1,0.9,0.1c1.9,0,3-1.8,3.6-3.1
		c0.2-0.4,0.1-0.7-0.1-1.1l-6-12.3H676.7z"/>
	<path class="st2" d="M712.7,191.3v18.1h-2.4v-16.2h-8.4v16.2h-2.4v-18.1H712.7z"/>
	<path class="st2" d="M739.4,191.3v18.1H737v-16.2h-8.4v16.2h-2.4v-18.1H739.4z"/>
	<path class="st2" d="M755.9,203.7l-1.9,5.7h-2.4l6.2-18.1h2.8l6.2,18.1h-2.5l-1.9-5.7H755.9z M761.9,201.9l-1.8-5.2
		c-0.4-1.2-0.7-2.3-0.9-3.3h-0.1c-0.3,1-0.5,2.2-0.9,3.3l-1.8,5.2H761.9z"/>
</g>
</svg>
