<svg version="1.1" id="Слой_1" xmlns="http://www.w3.org/2000/svg" xmlns:xlink="http://www.w3.org/1999/xlink" x="0px" y="0px"
	 viewBox="0 0 1920 200" style="enable-background:new 0 0 1920 200;" xml:space="preserve" preserveAspectRatio="none">
<style type="text/css">
	.st0{fill:#ED1C24;}
	.st1{fill:#B1A192;}
	.st2{fill:#81A9B2;}
	.st3{fill:#EDF8FD;}
</style>
<path class="st0" d="M557.9,145.9c147.4-8.6,300.8-14.2,460-16c212.7-2.4,415.7,2.2,608,12c34.7,33.3,69.3,66.7,104,100
	C1339.3,209.9,948.6,177.9,557.9,145.9z"/>
<path class="st1" d="M-40.1,164.9c87.4-11,217.2-24.6,375-30c335.2-11.5,584.4,21.1,700,35c249.7,30,615.2,61.6,1110,65
	c1.7,36.7,3.3,73.3,5,110c-725.2,0-1450.4,0-2175.6,0C-30.4,284.9-35.2,224.9-40.1,164.9z"/>
<path class="st2" d="M-17.3,206.6c114-16,286.7-36.3,498-45c233.4-9.6,402-0.5,552.1,6c213.2,9.2,521.9,18.8,912.1,18
	c2,33,4,66,6,99c-659.1,3-1318.1,6-1977.2,9C-23.3,264.6-20.3,235.6-17.3,206.6z"/>
<path class="st3" d="M1006.9,210.9c156.7-27,326.5-50,508-66c151.8-13.4,296.2-20.5,432-23c0,28.1,0,56.2,0,84.3
	C1633.6,207.7,1320.3,209.3,1006.9,210.9z"/>
</svg>
