<?xml version="1.0" encoding="utf-8"?>
<!-- Generator: Adobe Illustrator 19.2.0, SVG Export Plug-In . SVG Version: 6.00 Build 0)  -->
<svg version="1.1" id="Слой_1" xmlns="http://www.w3.org/2000/svg" xmlns:xlink="http://www.w3.org/1999/xlink" x="0px" y="0px"
	 viewBox="0 0 1500 1500" style="enable-background:new 0 0 1500 1500;" xml:space="preserve">
<style type="text/css">
	.st0{fill:#D1202C;}
</style>
<g>
	<polygon class="st0" points="1122.7,431.3 1139.1,449.7 1163.5,446.7 1151.1,467.9 1161.6,490.2 1137.5,485 1119.6,501.8 
		1117.1,477.3 1095.5,465.5 1118.1,455.5 	"/>
	<polygon class="st0" points="321.2,527.3 331.2,549.8 355.4,554.4 337,570.9 340.1,595.3 318.8,582.9 296.5,593.4 301.7,569.3 
		284.9,551.4 309.4,548.9 	"/>
	<polygon class="st0" points="387.6,967.1 390.1,991.6 411.7,1003.4 389.2,1013.4 384.7,1037.6 368.2,1019.3 343.8,1022.5 
		356.1,1001.1 345.6,978.9 369.7,984 	"/>
	<polygon class="st0" points="1166.7,885.4 1188.1,897.6 1210.3,886.8 1205.3,911 1222.4,928.7 1197.9,931.5 1186.3,953.2 
		1176.1,930.7 1151.9,926.4 1170.1,909.8 	"/>
	<g>
		<path class="st0" d="M629.1,722.2c1.1,10.7,3.2,17.1,6.2,19.3c3,2.2,6,3.2,8.9,2.9c4.4-0.4,7.4-2.4,9.2-5.8
			c1.7-3.4,2.1-9.7,1.1-19.1l-4.7-46c-1.1-11.2-2.9-18.4-5.2-21.7c-2.3-3.3-5.7-4.6-10.2-4.2c-2.7,0.3-5.4,1.9-8.1,4.9
			c-2.7,3-3.4,10.3-2.2,22L629.1,722.2z"/>
		<path class="st0" d="M987,673c4.2-0.4,6.9-2.2,8-5.2c1.2-3,1.3-9,0.4-18l-1.8-17.4c-0.9-8.6-2.2-14.2-4-16.8
			c-1.8-2.6-4.8-3.7-9.1-3.3c-4.2,0.4-6.9,2.2-8,5.3c-1.2,3.1-1.3,8.8-0.5,16.9l2,19.3c0.8,7.6,2.2,12.8,4.1,15.6
			C980,672.2,983,673.4,987,673z"/>
		<path class="st0" d="M823.8,655.8c-1.1-11.2-2.9-18.4-5.2-21.7c-2.3-3.3-5.7-4.6-10.2-4.2c-2.7,0.3-5.4,1.9-8.1,4.9
			c-2.7,3-3.4,10.3-2.2,22l4.9,47.5c1.1,10.7,3.2,17.1,6.2,19.3c3,2.2,6,3.2,8.9,2.9c4.4-0.4,7.4-2.4,9.2-5.8
			c1.7-3.4,2.1-9.7,1.1-19.1L823.8,655.8z"/>
		<path class="st0" d="M1005.7,737.8c-1-9.7-2.7-16.1-5-19.1c-2.3-3-5.6-4.3-9.9-3.8c-4.2,0.4-7,2.3-8.5,5.6
			c-1.5,3.3-1.8,9.9-0.7,19.8l3.4,32.9c1.1,11,2.9,17.9,5.2,20.9c2.4,2.9,5.7,4.2,10.1,3.7c4.5-0.5,7.4-2.4,8.6-5.7
			c1.2-3.3,1.3-10.6,0.1-21.8L1005.7,737.8z"/>
	</g>
	<path class="st0" d="M892.5,1118.9l-4.1,61.7l38.4,63.7l-33.8,8.8l-27.2-50.5l14,54L847,1265l-32.6-125.9l32.7-8.5l12.7,48.9
		l1.9-52.7L892.5,1118.9z"/>
	<path class="st0" d="M664.8,1133l-37.6,125.6l34.5,5.5l5.7-22.7l11.9,1.9l-1.9,23.4l34.1,5.5l1.5-131.4L664.8,1133z M646.1,1236.8
		c-2.3-9.3,4.5-7.6,9-8.6C654.9,1234.5,651.7,1237.1,646.1,1236.8z M667.3,1231.3c3.4-4.1,5.1-10.1,10.8-6.4
		C678.2,1233.2,672.1,1233.9,667.3,1231.3z M682.2,1220.5l-11.5-1.8c2.7-11.2,7.7-28.8,15.1-52.9
		C684,1187.4,682.8,1205.7,682.2,1220.5z M701.8,1187.6c-0.6-5.2,5.9-1.9,8.3-3.6C711,1190.4,704.1,1190.6,701.8,1187.6z"/>
	<g>
		<path class="st0" d="M1240.8,992c-25.8,48.9-58.6,93.4-97.2,132.4c2.6,1.6,4.8,4,6.4,7.7c-4.2-2.3-7.8-2.9-11.2-2.8
			c-100.2,98.7-237.7,159.7-389.1,159.7c-116.2,0-224.1-35.9-313.3-97.2c-4.2,4.9-11.8,6.8-17.3,2.1c-2.4-7.7,2.1-8.8,7.7-8.9
			c-11.5-8.2-22.6-16.9-33.4-25.9c-10.4-1.4-15.7,1.5-21.5,3.8c100.8,89,233.1,143.1,377.8,143.1c222.7,0,416-128.1,510.4-314.4
			C1255.3,994.1,1248.6,994,1240.8,992z M1231.8,1014.5c2.2-9.5,8.2-7.5,15.7-5.6C1249.3,1018.9,1236.2,1019.1,1231.8,1014.5z"/>
		<path class="st0" d="M87.3,779.3l1,9.5c8.9-2.9,19.1-1.9,23,3.9c9.1-2.8,12.5-27,23.2-10.2c-0.2-2.2-0.4-4.3,2.1-4
			c-0.7-3.6,1.4-4.6,1.4-7.6c-21.7-7-30.5,12.2-47.1,2C91.8,777.7,89.8,778.6,87.3,779.3z"/>
		<path class="st0" d="M91.1,815.5l1.2,11.9c1.6,0.7,3.5,1,5.9,0.3C99.1,817.3,93.9,818.8,91.1,815.5z"/>
		<path class="st0" d="M101.7,816.2c-2.6-9.4-7.2-13.9-12.2-15.7l1.4,13.3C95.3,813,97.1,817.1,101.7,816.2z"/>
		<path class="st0" d="M1141.6,665.5c-1.6-3-5.2-5.1-8.4-6.7c-1.5,2.6-1.6,6.2-0.6,9.1L1141.6,665.5z"/>
		<path class="st0" d="M720.3,736.4c3.8-1.2,7.3-3.2,10.1-6.9c3.3,6.7,8.7,8.9,15.1,8.7c-2.8-8.2-4.9-18.9-6.3-32.2l-2.1-20.2
			c-0.4-3.8-0.7-7.3-1-10.7c-7.2-2-14.2-1.6-22.5,0.2c1.3,9.8,2.7,22.1,4.2,37.3L720.3,736.4z"/>
		<path class="st0" d="M479.2,759.7c0.3,0.2,0.6,0.2,0.9,0.3l-0.9-8.5C478.9,753,478.2,755,479.2,759.7z"/>
		<path class="st0" d="M326.2,792.9c1.5-0.6,2-3.1,1.6-5.5l-4.3,5.3C324.4,792.8,325.3,792.9,326.2,792.9z"/>
		<path class="st0" d="M1421.7,779.6l-23.8-228.7c-2.8-27.2-27.2-47-54.4-44.1l-27.8,2.9c-9.5-23.9-20.6-47-32.9-69.3
			c-6.6,2.9-9.9-0.4-10-10c-0.9,3.7-2.4,6.3-4.1,8.1c8.6,15.1,16.6,30.5,23.9,46.4c1.9-1.9,6.3-1.4,9.3-2.3
			c-1.2,5.7,2.4,16-2.1,18.6c1.4,3.2,2.8,6.5,4.1,9.7l-26.4,2.8C1191,307.4,987,162.1,749.8,162.1c-241.9,0-449.1,151.1-532.5,363.8
			c3.8-0.9,7-1.9,9.3-3.2c-1.9,7-7.6,12-14.2,16.3c-2.6,7.2-5.1,14.4-7.4,21.7c6.6-3.8,18.5,4,18.8-7.9c-3.1-12.6-8.5,10.4-11.6-2.3
			c5.7-5.7,11.8-8.9,18.1-10.8c78.9-210.3,282-360.5,519.6-360.5c178.8,0,338.1,85,439.6,216.7c5.8-0.8,7.4,6.5,9.5,12.7
			c24,33.1,44.5,68.9,60.9,106.9l-175,18.2C1016.4,420,891.8,343.6,749.8,343.6c-120.4,0-228.1,54.8-299.7,140.7
			c7.9-1.8,18.5,1.3,20.9,1.6c0,0.1,0,0.1,0,0.2c68.4-76.9,168.1-125.4,278.9-125.4c92.5,0,177.1,33.8,242.4,89.7
			c2.8,1.4,5.2,3.4,7.2,6.3c25.6,23.1,48.1,49.7,66.6,79l-22.1,2.3c-17.4-26-38.1-49.5-61.6-70c-1.6,1.4-2.5,4.1-2.3,8.8
			c-1.2-4.1-8.2-13.3-10.3-19.4c-3.4-2.7-6.9-5.4-10.4-8c-4.5,1.6-8.8,4.2-11.2,5.2c0-5.7,1.6-8.8,4-10.4
			c-57.3-40.1-127-63.7-202.1-63.7c-108.7,0-206.1,49.4-271,126.9c1.3,3.6,3.1,7.4,5.5,11c62.8-77.2,158.5-126.6,265.5-126.6
			c116.4,0,219.3,58.5,281.2,147.5l-53.8,5.6c-5.3,6.1-14.2,8.6-25,9.4c0.7-2.8,2-5,3.5-7.1l-18.7,1.9c-5,14.5-27.7,7.4-40.1,8.1
			c-0.5-1.6-0.6-2.8-0.5-3.9l-83.5,8.7c0,5-1.2,8.8-5.4,9.6c-0.5-2.9-1.1-6-1.6-8.9l-20.7,2.2c0.7,0.5,1.3,1.1,1.9,1.8
			c-0.9,3.1-1.8,6.2-0.7,11.2c-17.1,6.7-24.6,0.5-34.8,7.9c-4.4,4.1-5.5-20.6-6.8-6.6c-10.5-4.5,2.3-6.4,3.4-10.4l-10.7,1.1
			c-1.5,4-1.2,9.5,2.5,13.6c-18.8-2.2-48.5,19.6-64.1,0.3c5.3,4.8,22.8,4.9,17.8-9.3l-97.1,10.1c-3.6,9.5-12.4,0.4-23.1,4.1
			c0.6-0.7,1.2-1.3,1.9-1.8l-141.1,14.7c7.1-16.8,15.5-32.8,25-48.1c-4.7-1.6-8.5-2.1-12.1-1.8c-9.8,16.3-18.4,33.3-25.6,51.2
			l-12.5,1.3c0.4,3.6-0.4,6.1-4.9,4.9c-0.5-1.4-1.1-2.8-1.6-4.2l-3.3,0.3c0.6-1.6,1.2-3.1,1.8-4.7c-1.2-4.4-0.8-8,3.9-9.8
			c2.7-6.5,5.6-12.9,8.7-19.2c-4.9,2.9-11,4.6-14.9,8.5c-0.7-4-2.1-6.5-3.9-8.2c-5.2,11.2-9.8,22.7-13.9,34.5
			c4.4,0.4,8.3,2.6,10.9,11.7c-11.9-5.9-18.1-3.8-30.7,0c1.9-4.5,2.6-6.6,2.3-9l-157.9,16.5c1.7-8.3,3.5-16.5,5.5-24.7
			c-1.8-2.9-1.9-9.1-5.4-8.7c-4.6-5.3,1.7-2.8,7.6,0.5c2.4-9.1,5-18.1,7.9-27c-5.5,1.6-11.6,2.4-18.2,1.4
			c-4.4,14.5-8.3,29.3-11.6,44.3c0.4,6.3,3.2,12.3,1.9,19.4c3.3,5.1,8.3,7,15,5.6c-8.2,10.8-24.9-0.9-39.6-2.7
			c0.5-1.4,0.7-2.9,0.9-4.5l-8.2,0.9c1.1-6.1,2.4-12.2,3.6-18.3c-0.1,0-0.2,0.1-0.4,0.1c-0.7-5.2-1.4-10.3-4.7-10.6
			c-0.1-8.5,3.7-2.4,7.5-0.9c2.6-11.4,5.6-22.6,8.9-33.7c-2-5.1-3.6-12.7-5.7-20.2c-2,6.2-3.9,12.5-5.7,18.9
			c1.7-0.7,3.4-1.4,4.7-2.4c4.4,11.3-2.2,12.1-8,13.6c-4.8,17.9-8.8,36.2-12,54.7l-21.6,2.3c5.1,5.1,11.8-1.5,13.3,3.4
			c1.8,14.9-7.2,0.7-12.3,8.9c2,4.3,4.8,7,9.5,6.3c-2.4,5.6-8.1,8-15.1,9.2c-11.9-10.3,0.3-20.6-0.3-27.3l-1.3,0.1
			c-11.1,1.2-20.9,5.9-28.5,13c0.7,3,1.6,5.7,3.5,6.3c8.8-8.7,8.1,4.4,19.8,1.3c-5,6.2-22.6,14.1-35.5,10c-3,7.3-4.3,15.4-3.4,23.8
			l7.2,69.4c20.4,17,32.2-2.9,48.2,2.4c-0.8-11.5-8-10.9-15.7-9.3c3.4-16.8,12.4,5.3,17.8-9.6c2.4,21.4,2.9,42.1,19.6,45.9
			c2.6-0.4,1.3-4.7,1.4-7.6c3.9,9,17.1,0,19.1,12.6c-14.9,0.2-21,12.7-31.4-3.6c-2.5,4.5-3.1,10.9-12.3,8.9
			c15.6,18.5,37.8,1.5,54.5,8.3c2-3.7,0.4-14.3,11.1-14.1l-29.1-22.5l65.3-17.3l22.8-63.6l23.1,35.8c7.7-1.3,15.7-3.2,20.4,1.2
			c4.6,13.1-11.1,6.4-8,18.2l1.1,1.6l67.5,2l-29.2,35.8c10.8-0.8,24.3-11.2,35.3-13.7c1.8,5.8-1.4,6.6-0.7,11.2c3.1-1,5,0.3,6.1,3
			c3-1.1,0.9-3.8-0.7-3.6c27.1-9.1,56.1-24.3,91.5-18.4c4.8,0.2,5.9-7,8.2-1c6-4.4-8.3-15.4,5.5-15.5c1.3,1.5,2,2.5,2.4,3.3l0-0.2
			c-2-19.7-3.7-31.4-5-35.3c-1.3-3.9-4.2-6.6-8.7-8.2c-3.7-1.3-11.1-1.6-22.1-0.7c-10,2.4-19.1,7.4-26.5,18.7
			c-10.3,1.9-1.5-2.8-4.7-10.6c-2.1,3-2.9,7.1-3.5,11.6c-1.4-21.5-18.1-0.8-25.8-19.2c-2.1,1-2.1,3.9-4.8,4.3
			c8.5,11.5-12.2,11.1-0.8,26.1c-12.8-7.4-8.9-18-17.6-35c10.6,0.2,37.6,7,40.3-8.6c-1.6-17.8-37-11.3-32.8,3.9
			c-12.6-4.1-7.3-11.8-7.4-25.1c4.7,7.8,38.7,2.5,39.6-12.2c7.9,13.8,7.6,31.8,4.6,40.3c7.6-2.1,16.2-3.6,25.3-4.8l-1.8-17.9
			c30-9.7,51.8-25.7,65.6-47.8l37.3-3.8l5.8,56.5c3.7,0.9,7.3,2.4,10.4,4.3c-1.3,5.8-4.8,7-9.3,6.5l19.1,186.5l-63.4,6.5
			l-12.2-119.5c-3.6,0.6-6.7,2.2-7.6,6.8c0.1,6.3,3.4,6.6,6.8,6.6c0.9,13-14.8,7.7-21.2,6.3c-0.8-6.8,8.9-3.3,9.6-8.6
			c-8.3-4.7-15.9-10.8-23.2-4.7c2.4,3.5,7,3,7.4,10.3c-6,11.7-11.7-2.4-17.7-5.3c-6.8,4.2,5.1,12.4,6.1,17.8
			c3.6-2.5,14.9,2.6,13-5.3c6.2,13.3-29.4,9.3-34.8,7.9c-1.4-9.4,9.1-7.1,11.6-12.5c-5.6-10.9-11.5,9.5-15-5.6
			c-3.9,4.2-0.1,15.8-1.5,22.5c-20.5,5.2-52.3,14.8-69,19.4c1-11.8-1.2-8.2-4-21.8c-5.9,1.2-4.2,9.9-2.1,18.8
			c-8.6-8.5-5.5,7.9-13.3,9.2l11.1,37.9l-63-24.4l-55.8,38l1.7-31.5c-20.2,4.9-41.2,10-62.4,14.8c-0.7-3.6-1.3-7.3-2-10.9
			c0.5,11.5-11.8,10.4-16.5,16.8c4.3,10.4,6-5.5,13.7-1.6c-0.6,5.4-2.6,9.4-6.2,11.9c1.8,6.3,6.2,7.7,12.3,5.9
			c6.7,19.3-18.6,26.3-25.3,14.2c-0.6-7.7,8.4,4.5,6.9-8.3c-2.2-7.5-6.3,6.1-11.6-2.3c1.3-5.7,7.8-6.3,12.3-8.9
			c-4.8-7.2-12.5-8.7-17-16.5c-0.6,19.7-23.1,4-26.3,16.5l4.1,38.9c2.8,27.2,27.2,47,54.4,44.1l0.9-0.1c-0.3-3.8-0.7-6.8-2.1-6.6
			c-1.1-3,0.4-3.5,2.1-4c4.2-1.5,5.3,2.9,8.9,2.7c-1.2,2.9-2,5.1-2.4,7.3l20.5-2.1c89.5,225,309.4,384.4,565.9,384.4
			c167.1,0,318.5-67.7,428.6-177c-0.9,0.1-1.7,0.1-2.5,0.3c-3.9-10,4.3-8.3,10.6-8.4c12.9-13.3,25.1-27.1,36.7-41.5
			c-3.5-0.4-7.3-0.2-11.6,1.1c4.2-4.6,11.4-10,16.8-7.6c61.3-77.9,104-171,121.4-272.7l27.8-2.9
			C1404.8,831.1,1424.5,806.8,1421.7,779.6z M162.3,675.2c2.5,3.5,7,3,7.5,10.2c-10.1,10.3-8.2-11.5-16.3-12.9
			c-0.8-8.6,11.6-3.5,13.7-1.6C167.7,674.5,164.3,674.1,162.3,675.2z M156.4,642.5c2.4,0.4,2.3-1.7,2.1-4c8.3-2.1-5,11.3,4.7,10.6
			c-3.1,11.8-13.7-2.6-13.6-13.2C154,634,155.2,638.1,156.4,642.5z M107.7,696.6c-1.8-5.7,1.5-6.5,0.7-11.2
			c13.7,8.4,12.7-7.5,26.7-6.9c2.1,9-2.2,11.8-2.1,18.8C120,693.7,118.3,695.1,107.7,696.6z M127.4,712.8c-1.8-9.3,1.2-4.7,4.8-4.3
			c2.6-0.4,1.3-4.7,1.4-7.6c5.8-1.4,9.2,1.9,10.2,9.9C139.5,719.4,135.6,710,127.4,712.8z M137.7,693c2.9-5.1-1.5-17.3,1.5-22.4
			c11-0.2-0.8,13,10.2,9.9C152.7,691.7,145.7,692.8,137.7,693z M147.8,717.8c-1.3-7.2,6.6-5.5,2.8-15.2c7-2,1.2,20.7,10.8,13.5
			C162.3,724.8,149.9,719.7,147.8,717.8z M160.9,697.7c9.7-0.6,7.4,21.8,17.6,20.1C178,732.1,160.4,715.6,160.9,697.7z M173.9,677.5
			c0.9-5.1,4.6-7.4,9.6-8.6c0.3,4.3,1.8,6.4,4.1,6.9C188.5,684.5,176,679.4,173.9,677.5z M197,711.9c-4.6-2.6-6.1-11.2-8.8-17.5
			c3.6-0.4,7.3-0.9,10.9-1.3C203.2,704,192.9,701,197,711.9z M325.1,741c1.3-18.8-11-11.7-17-16.5c6.6-5.5,6.4-17.6,19.2-17.1
			c-1.4,14.2,8.8,6.1,8.8,17.5C323.4,721.5,335.9,742.6,325.1,741z M320.6,685.9c-4.4-14,10.7,0.6,18.5-5.9
			C339.1,694.1,328.5,684,320.6,685.9z M391.1,629.2c-1.7-15.6,22.2-6.2,31.4-11.2C422.1,640.1,402.2,614.2,391.1,629.2z M410,671.4
			c-0.9-4.8-1.8-9.7-2.7-14.5c7.9-3.6,10.6,2.5,17.1,1.7C424.4,667.6,415.6,667.9,410,671.4z M501.1,604.8c1.3-5.7,5.4-8.6,12.3-8.9
			C517.6,608.3,506.2,610.1,501.1,604.8z M1347.7,595.9c4,11,3.2,6.8,3.3,18.2C1343.5,613.6,1334.7,596.3,1347.7,595.9z
			 M1311.2,533.5c10.5-0.3,17-11.5,30-3.6c5.3,14.5-12.5,14.4-17.8,9.6c-6.9,1.3-3.2,12.8-1.5,22.4c-17.9-2.4-0.4-21.2-14.2-31.7
			C1310,529.2,1310.6,531.3,1311.2,533.5z M1305.7,534.1c5.8,22.7-8.8,7.2-16.5,16.8c-3.4-8.2-9.3-11.7-14.2-16.8
			C1280.2,530.7,1290.7,535.5,1305.7,534.1z M1249,544.7c-14.5,29-30.9,1.2-64.2,15.1C1193.1,539.4,1230.7,548.2,1249,544.7z
			 M1203.7,602.1c-3.1,16.1,1.7,21.4-4.9,34c-8.1-4.5-12.6-12.1-20.5-5c-2.9-12.1,9.9-2.8,14.4-12.9c-5.6-5.6-15.7-2.7-21.1-8.6
			C1178.6,597.2,1197.4,611.2,1203.7,602.1z M1131,540.3c0.8,13-14.8,7.7-21.2,6.3C1110.1,531.6,1121,545.7,1131,540.3z
			 M1180.8,552.9c5.1,22.9-25.9-1.8-27.4,18.1c-0.2-7.2-13.8-9.9-16.4,2c-1.6-4.1-6-12.3-8.2,1c-12.1-11.5-22.5,1.9-36.8-3
			C1118,551.1,1150.4,560.1,1180.8,552.9z M1119.1,612.2c-0.9,3.1-1.8,6.2-0.7,11.2c4.4,6.2,14.8,1.1,20.5,5
			c6.2-5.5,7.2-8.5,2.1-18.8c10.3-5,13.1,4.2,18.4,8.9c9.6-1.6-8-11.3,0.7-11.2c8.1-2.3,7.8,11.1,11.5,17.2
			c-18.6,1.1-32.9,23.7-54.6,6.6c-3.8,2.1,1.9,4.5,2,10.9c-5.3,2.9-12.2-14.9-12.3-6c-7.2,0,2.6-6.7-2.7-14.6
			c-1.8,0.2-3.6,0.4-5.5,0.7c-3.1,4.1,2.3,5.9-3.5,11.6C1084.6,621.1,1098.6,605.6,1119.1,612.2z M690.7,604.3
			c0.9,4.9,1.8,9.7,2.7,14.5c1.8-0.2,3.6-0.4,5.4-0.7c-1.9,12.5-8.1-6.7-14.3-2c-0.4-2.4-0.9-4.8-1.3-7.3
			C685,606.7,686.9,604.6,690.7,604.3z M671,588.1c-3.8,9.5-28.8,7.5-40.3,8.6C637.4,583,657.5,590.6,671,588.1z M561.3,663.7
			c0.5-8.8,3.3-17.2,8.4-25.2c5.1-8,12.6-14.5,22.5-19.7c9.9-5.1,21.7-8.4,35.4-9.8c16.9-1.7,31.1-0.8,42.4,2.8
			c11.4,3.6,20.5,9.5,27.3,17.7c6.9,8.2,11.3,17.1,13.2,26.8c0.4,2,0.8,4.6,1.3,7.4c4.5-2.5,7.4-6.7,13.3-7.8
			c-1.4-3.2-13.9-8.2-11.6-2.3c-6.6-5,4.4-15.6,12.3-8.9c-2.3-12.4-7,1.3-10.8-13.5c-6.1,0-8.2,4-6.2,11.9
			c-10.3-12.1,1.9-28,7.7-34.3c6.9-3.6,6.8,6.6,12.2,5.9c1.7-6.8,20.1-12.8,36.9-13.3c0.2-0.1,0.3-0.2,0.4-0.3
			c9.9-5.1,21.7-8.4,35.4-9.8c16.9-1.7,31.1-0.8,42.4,2.8c0.4,0.1,0.7,0.3,1,0.4c16.4-17.2,52.5,15.9,70.2-13.4
			c8.3,10.3,16.8,5.2,24.6-3c1.5,1.2,2.5,2.4,3.1,3.5c9.2-4.1,20.2-6.9,33.1-8.2c7.5-0.8,14.4-1,20.7-0.8c0.1-1.5,0.1-3.1-0.2-5
			c19.6,1.9,62.6,5.3,74.4-5.3c8.9,6.7,12.5,4.9,16.3,12.9c-6.9-7.6-18.1,12.5-23.2-4.6c-8.7,4.5-20.3,8.5-32.2,11.3
			c1.3,0.9,2.7,1.9,3.9,2.9c11.9,10.5,18.9,26.5,21.1,48c1.4,13.7,0.7,23.7-2.2,30.2c-2.9,6.4-9.3,13-19.4,20
			c10.8-1.7,26-1.7,37.3-5.8c14-5.1,10-6.9,23.9-6.6c2.8,0.1,17.5-11.8,0.7-11.2c14.3-10.2,41.8,4.4,51.2-9.9
			c-0.8,9.2,1.2,9.8,1.2,13.9l11.8-3.1c-0.2-1.6-0.6-3.3-0.7-4.8c0.8,1.7,1.7,3.1,2.6,4.3l32.9-8.7l22.8-63.6l9.2,14.3
			c0.1-0.9,0.2-1.8,0.3-2.8c30.9-10.6,54.1,18.6,70.3-12.2c-6.4,13.7,13.2,7.4,17,16.5c2.8-1.3,0.5-7.4,4.1-7.9
			c8.9,2.7,19.7,1.6,20.4,19.8c-10.5,0.7-19.8,2.6-23.2,10.2c-6-4.8-9.6-14.3-17-16.5c-13.8-1.3-22.2,20.2-32.8,3.9
			c-3.7,2.1,1.9,4.5,2,10.9c-10-4.9-18.4-2.9-26.9,0l13.2,20.4l67.5,2l-42.7,52.3l18.9,64.8l-63-24.4l-55.8,38l3.7-67.4l-34.5-26.7
			c-9.7,1.4-19.9,2.5-30.9,3.5c-20.6,1.9-43.7,5.5-66.2,5.9c2,1.7,3.8,3.4,5.5,5.4c5.8,7,10.1,24.5,13,52.7
			c2.1,20.5,1.7,35.8-1.3,46s-9.9,18.9-20.8,26.3c-10.9,7.4-26,12.1-45.3,14.1c-18.8,1.9-34,0.5-45.6-4.4
			c-11.6-4.8-20.3-11.9-26-21.3c-5.8-9.3-9.8-25.5-12.2-48.4c-1.6-15.4-1.8-28.8-0.6-40.4c0.4-4.3,1.6-8.4,3.5-12.2
			c-4.8,0.6-9.2,0.4-12.2-2.5c0.7-7.1,11.4-11.6,15.6-3c3.1-4.3,7.2-8.2,12.4-11.8c-8.2-3-14.7-8.3-19.5-16.1
			c-4.8-7.8-7.8-18-9.1-30.7c-1.8-17.8,0.8-32.3,7.8-43.7c-18.1-3.9-37.7,6-52,3.4c2,1.8,3.8,3.7,5.5,5.7
			c6.9,8.2,11.3,17.1,13.2,26.8c1.9,9.6,4.3,28.4,7.2,56.3l3.6,35.3c2.1,20.9,3.6,36.9,4.3,48.3c4.6-5.8,10.8-6.3,17.4-4.5
			c-3.3,4.8-4.7,11.3-11.6,12.6c-1.6-2.7-3.2-5.3-5.6-6.2c0.3,4.2,0.4,7.8,0.5,10.6c0.2,10.3-2.4,20.3-7.9,30.1
			c-5.5,9.8-13.5,17.5-24,23.1c-10.5,5.7-23,9.2-37.4,10.7c-17.9,1.8-32.8,0.5-44.7-4.1c-11.9-4.6-20.9-11.9-27-21.8
			c-6-9.9-9.9-22.9-11.5-38.8l63.4-6.5c1.2,11.8,2.1,19.2,2.8,22.3c0.6,3.1,2.2,5.5,4.6,7.4c2.5,1.9,5.6,2.6,9.5,2.2
			c3.2-0.3,5.8-1.6,7.7-3.8c1.9-2.2,2.8-4.9,2.7-8c-0.1-3.2-0.6-9.5-1.6-19l-4.1-40.5c-2.4,7.1-6.6,12.7-12.5,16.7
			c-5.9,4-13.5,6.5-22.8,7.5c-11.6,1.2-22.2-0.9-31.7-6.3c-8.9-5-14.9-11.4-18.4-19.2c-9.1,1.4-17.6,2.9-25.9,4.8l0,0.2
			c1.3,12.3,2.3,22.8,3,31.8c6.8,0.2,14.6-1.6,16.5,8c-5.3-5.4-10.8-2.1-15.8,0.6c0.7,8.8,1.1,15.7,1.2,20.4
			c0.2,10.3-2.4,20.3-7.9,30.1c-5.5,9.8-13.5,17.5-24,23.1c-10.5,5.7-23,9.2-37.4,10.7c-15.8,1.6-29.2,0.6-40.4-2.8
			c0.2,1,0.4,2,0.5,3.3c-10.9-0.6-12.1,8.1-23.9,6.6c-3.8-9.7,4.1-7.9,2.8-15.2c2.1-0.1,4.3-0.5,6.5-0.9
			c-7.1-4.3-12.9-9.9-17.2-16.9c-6-9.9-9.9-22.9-11.5-38.8l63.4-6.5c1.2,11.8,2.1,19.2,2.8,22.3c0.6,3.1,2.2,5.5,4.6,7.4
			c2.5,1.9,5.6,2.6,9.5,2.2c3.2-0.3,5.8-1.6,7.7-3.8c1.9-2.2,2.8-4.9,2.7-8c0-2-0.3-5.4-0.7-9.9c-7.2,1.8-12.7,5.3-20.6,6.4
			c0.5-5.5,2.4-9.7,2.8-15.2c8.1,3,13.2,0.8,15-9.2c0.3,0.3,0.7,0.5,1,0.8l-3.2-31.6c-0.1,0-0.2-0.1-0.3-0.1
			c-2.5,6.8-6.5,12.2-12.3,16.1c-5.9,4-13.5,6.5-22.8,7.5c-11.6,1.2-22.2-0.9-31.7-6.3c-9.5-5.4-15.9-12.3-19.3-20.8
			c-3.3-8.5-5.7-20.3-7.3-35.2l-2.1-20.2C561.4,685.8,560.7,672.5,561.3,663.7z M1119,779.3c-4.6,0.5-9.1,1.1-13.7,1.6
			c5.9-10.6,13.7-16.4,25.3-14.2C1130.8,781,1114.9,765.6,1119,779.3z M1122,719.5c-16.6,9.4-19.3-13.2-28.6-4
			c-0.7-3.6-1.3-7.3-2-10.9c5.5-0.7,10.9-1.3,16.4-2C1100.6,717,1123.3,701.7,1122,719.5z M1147.4,827.9c-3.7,6.3-13.7,6.6-20.5,9.9
			C1122.6,823.6,1141.1,831.7,1147.4,827.9z M1143.2,713.3c1.9-5,27-12.8,28,0.3C1156.6,712.6,1154,717.7,1143.2,713.3z M1075.9,803
			c-2.5-9.4-1.9-15.7,5.5-15.5C1087.5,793.2,1083.2,801.9,1075.9,803z M894.5,635.5c8.1,2.4,12.1,12.7,15.6,24.1
			C899.1,662.7,899.8,643.5,894.5,635.5z M894.3,680.1c-2.6-9.4,1.6-12.4,8.9-12.2C905.8,677.4,901.7,680.2,894.3,680.1z
			 M673.7,877.4c5.4,5.2,1.8,16.8-4.8,19.1C673.9,888.3,660.1,878.7,673.7,877.4z M661.4,886.3c-8.6,12.6-3.7,32.6-13.6,1.6
			C652.3,887.4,656.9,886.8,661.4,886.3z M567.2,752.8c-5.3,5.7-12-8.1-10.9,1.3C543.8,746.5,567.6,733.6,567.2,752.8z
			 M1034.9,869.7c0-0.7-0.1-1.5-0.2-2.3c0.6,0.8,1.1,1.5,1.7,2.1l28.9-3c-51.9,123.1-173.8,209.7-315.5,209.7
			c-58.4,0-113.3-14.7-161.4-40.6c0.4,5.5-1.4,8.9-6.8,8.7c-4.2-3.9-3.4-9.2-0.1-12.5c-44.9-25.5-83.5-60.8-112.9-103.1
			L1034.9,869.7z M455.7,930.1c63.5,94.9,171.6,157.5,294,157.5c148.6,0,276-92.2,328.2-222.4l22.3-2.3
			c-37.8,102.4-119.3,183.9-221.7,221.7c-1,3.5-5.5,3.7-10.2,3.5c-36.3,12.2-75,18.9-115.2,19.3c-8.3,6.1-19.4,6.1-31.3,1.9
			c0.9-0.8,1.9-1.7,3-2.6c-122.6-8.2-229.1-75.8-291.1-174.2L455.7,930.1z M358.6,863.2c0,14.1-10.5,4-18.4,5.9
			C334.1,867,355.7,857.5,358.6,863.2z M1321.6,925.7c-1.6,5.5-5.2,8.5-9.6,10.1c-4.5,12.5-9.5,24.9-14.8,37
			c0.7,0.1,1.5,0.2,2.4,0.1c2.3-2.7,1.3-8.7,6.9-8.3c2.1,9-2.2,11.8-2.1,18.8c-4.5,0.9-7.3-1.5-10.3-3.5
			c-93.9,207-302.5,351.4-544.2,351.4c-247.2,0-459.7-151-550.4-365.5c-1.1,0.6-2.1,1.3-2.9,2.2c-7.6-4,0.5-13.9-5.4-14.2
			c5.3-3,19.6-10.8,22.6,1.3l2.6-0.3c0.8-3.3,1.1-7.2,7.5-5c0.2,2.5-0.2,4.5-1,6.1c8.3,19.5,17.6,38.5,27.9,56.9
			c4.2,0,9.1,1.8,10.4,3.1c0.6,4-2.3,4.8-5.8,4.8c28.8,49.4,64.7,94.2,106.5,132.8c7-2.4,16,0.5,23.4-1.9
			c-7.9-6.9-15.6-14-23.1-21.3c-5.4,0.3-11.4,0-15.5,1.5c1.5-3.3,4.5-6.5,8-9c-48.1-48.9-87.2-106.5-114.7-170.4l175-18.2
			c6.3,10.5,13.1,20.8,20.4,30.6c5-0.2,10.8,0.4,14.3-1.2c-0.4,4.3-4.2,7.2-8.8,8.5c71.4,92.5,183.4,152.2,309,152.2
			c169.7,0,314.3-108.9,368-260.4c-2,0.2-3.8,0.6-5.3,1.4c1.7-18.3,24.6-2.5,31.4-11.2c0.2,1.6,0,2.9-0.3,4.1l150.3-15.7
			c-9.1,45.8-24,89.5-43.6,130.5c5.2-1.8,10-1.6,18.6-0.3c0,0.3,0,0.5-0.1,0.8c19.4-41.8,34-86.3,42.8-132.8l26.5-2.8
			c-5.4,30.4-13.1,59.9-22.9,88.5C1317.4,926.4,1319.6,926.1,1321.6,925.7z M1333.1,653.4c-2.2-16.8,10.8-5.1,13-5.3
			C1375,645.2,1366.4,650.4,1333.1,653.4z M1361.6,549.7c1.3,7.3,2.7,14.5,4,21.8C1361.4,571.2,1350.3,549,1361.6,549.7z
			 M1365.4,616.1c-4.7-13.7,10.5-15.5,10.9-1.3C1372.6,615.2,1369,615.6,1365.4,616.1z"/>
		<path class="st0" d="M461.1,539.1c0.2,3.7,1.4,5.6,2.6,7.3c1.3-2,2.7-4,4.1-6c-0.4-0.7-0.8-1.3-1.3-2c0.9,0,1.9-0.1,2.7-0.2
			c3-4.2,6-8.4,9.2-12.5c-1.6-4.3-1.5-8.7-6.7-9.6c-6.4,8.1-12.4,16.5-18,25.1C455.9,540.6,458.2,539.8,461.1,539.1z"/>
		<path class="st0" d="M320.6,809.2l3.1,10.5c0.8-3,2.3-5.3-0.3-11.6C322.3,808.4,321.4,808.7,320.6,809.2z"/>
		<path class="st0" d="M443.5,504.1c1,8-5.5,8.6-12.3,8.9c3.2,5.5,9.1,8.9,7,15.5c3.5-5.3,7.1-10.4,10.9-15.5
			c0.4-1.2,1.3-2.4,2.5-3.4c4.8-6.4,9.8-12.6,15-18.6c-6.2,3.2-17.5,3.4-23.9,2.4c-3.5,4.4-6.8,8.9-10.1,13.4
			C436.1,506.5,440.1,506.1,443.5,504.1z"/>
		<path class="st0" d="M428.5,513.3c-0.1-0.1-0.2-0.2-0.2-0.3c0,0.1-0.1,0.1-0.1,0.2C428.2,513.3,428.3,513.3,428.5,513.3z"/>
		<path class="st0" d="M705.9,573.2l-11.9,1.2C698.9,577,702.7,574.5,705.9,573.2z"/>
		<path class="st0" d="M430.4,539.1c0.3,0.2,0.6,0.2,0.9,0.4c1.9-3,3.7-6,5.7-9c-4.5-4.2-7.1-16.7-8.5-2.3c-1.7-3.1-3.9-4.9-6.3-5.9
			c-9.5,14.7-18.1,30.1-25.7,46.1c6.6,2.1,13.5,1.5,20.2-2.8c4.4-8.6,9.1-17,14.1-25.2C430.6,539.9,430.5,539.5,430.4,539.1z"/>
		<path class="st0" d="M714,579.2c4.3-1.4,7.2-4.1,9.2-7.8l-13.6,1.4C711.1,573.4,712.6,575.1,714,579.2z"/>
	</g>
	<path class="st0" d="M624.5,1160.4c-2.2,0.2-4.5,0.7-6.8,1.7c-0.8-4.2,1-5.2,0-9.6c5.3,0.4,10.1-0.5,14.1-0.9l17.1-20.9l-29.6-11.3
		l-31.1,40.5c1.7,0.4,3.4,1.4,4.9,3.6c-4.4,7.9-11.8,8.9-19.7,5.3c3.2-3.7,9-9.8,14.4-9l17.5-45.8l-31.6-12.1l-39.6,103.6
		c0,0.9-0.2,1.6-0.8,2l-6.1,15.8l31.6,12.1l9.9-26c-2.2-3.7-6.3-2.9-7-10.1c5.9,1.2,0.8-10.6,7.6-8.3c0,2.6-2.6,2-2.2,5.1
		c1.5,1.9,3,3.7,4.6,5.5l7-18.3l-4.8,38.2c1.3-0.3,2.8-0.3,4.2-0.5c-1.1,2.5-3,6-5,6.8l-1.6,12.4l32.6,12.5l5.6-74.2L624.5,1160.4z
		 M595.1,1158.2c2.9,0.6,6.3-0.1,6.8,6.2c-2.4,0.4-4.8,0.7-7.2,1.1C593.7,1161.7,595.4,1161.2,595.1,1158.2z M605.6,1209.6
		c-3.4,0.6-4.8-3.4-9-1.1C594.4,1199.8,606.7,1201.2,605.6,1209.6z M603.3,1164.2c-3.2-8.5,7.1-10.6,9.3-6.2
		C615.1,1166.8,606.3,1162,603.3,1164.2z"/>
	<path class="st0" d="M805.5,1209.4c-3.7-4.9-11.8-10.9-24.3-18c-0.6,0.2-1.1,0.4-1.7,0.6c-0.1-0.6-0.1-1.1-0.1-1.6
		c-1.1-0.6-2.1-1.2-3.3-1.8c-0.8-0.4-1.4-0.8-2.1-1.2c0.2,0.2,0.4,0.3,0.5,0.6c2.5,8.8-6.3,4-9.3,6.2c-2.3-6.3,2.7-9.1,6.4-8.3
		c-2.7-1.8-4.5-3.4-5.3-4.8c-1.3-2.1-2-5.4-2.2-9.7c-0.1-3.4,0.3-5.9,1.2-7.6c1-1.7,2.5-2.6,4.5-2.7c1.9-0.1,3.2,0.5,4.1,1.7
		c0.9,1.2,1.4,4,1.6,8.5l0.4,9.6l31.4-1.3l-0.2-5.1c-0.4-10.3-1.7-17.6-3.9-21.8c-2.2-4.2-6.4-7.6-12.7-10.2
		c-6.3-2.6-13.8-3.7-22.6-3.3c-8,0.3-14.8,1.9-20.4,4.8c-5.6,2.8-9.5,6.6-11.9,11.3c-2.3,4.7-3.3,12-2.9,22
		c0.3,6.9,1.4,12.5,3.4,16.9c0.4,0.8,0.7,1.5,1.1,2.2c4.8-4.9,12.2-10.7,17.6-3c-3.6,6.4-9.1,8.2-15.3,6.8c1.2,1.6,2.4,3,3.8,4.1
		c2.8,2.4,8.6,6.2,17.2,11.4c8.6,5.2,14.1,8.9,16.3,11.1c2.2,2.3,3.4,7.2,3.8,14.9c0.1,3.5-0.3,6.1-1.3,7.9c-1,1.8-2.7,2.8-4.9,2.9
		c-2.2,0.1-3.8-0.5-4.8-1.9c-0.9-1.4-1.5-4.5-1.7-9.3l-0.7-15.8l-31.4,1.3l0.4,8.5c0.3,6.3,0.9,11.5,1.9,15.9
		c0.6-0.1,1.2-0.1,1.8-0.2c-0.3,0.8-0.8,1.6-1.2,2.5c0.4,1.6,0.9,3,1.5,4.3c2.2,5.2,6.6,9.4,13.1,12.6c6.5,3.1,14.3,4.5,23.4,4.2
		c8.2-0.4,15.4-2.1,21.5-5.4c2.7-1.4,4.9-3,6.8-4.7c-1.3-1.7-2.1-4.7-4.8-3.1c-1.3-8.8,5.3-4.9,7.3,0.5c1.1-1.4,2.1-2.8,2.8-4.3
		c2-4.5,2.8-11.3,2.4-20.6C812,1224.1,809.6,1215,805.5,1209.4z M756.6,1195.5c-1-3.7,0.8-4.3,0.4-7.3c2.9,0.6,6.3-0.1,6.8,6.2
		C761.4,1194.8,759,1195.1,756.6,1195.5z M767.5,1239.6c-3.4,0.6-4.8-3.4-9-1.1C756.3,1229.8,768.6,1231.2,767.5,1239.6z
		 M798.7,1232.5c-4.3-11.6,7.1-4.4,5.4-12.8C806.7,1221.7,803.6,1233.1,798.7,1232.5z"/>
	<g>
		<path class="st0" d="M992.6,1194.8c2-4.5-1.5-7.2-4.3-9C986.6,1189.7,988.3,1196.6,992.6,1194.8z"/>
		<path class="st0" d="M1022.6,1191.6l-18.9-26.7c-7.6,3.6-14.4,12.1-23.9,2.9c-2,1.4,1,2.9,1,7.1c-2.8,1.9-6.4-9.6-6.4-3.9
			c-3.8,0,1.4-4.3-1.4-9.4c-1,0.1-1.9,0.3-2.9,0.4c-1.4,2.3,0.4,3.4-0.9,6c0.9,1.3,1.8,2.8,2.7,4.1l-10.4,5.3
			c-4-9.6-9.6-24.7-16.6-45.1c-9.1,4.1-20.6,6.9-29.1,5.9l2.2,6.2c1.6,0.3,3.2,0.7,4.2,0.7c0,2.7-1.4,3.9-1.7,6.3l4.1,11.5
			c2.6,0.6,5.5,1.8,6.5,2.5c-0.4,5.2-2.3,5-4.3,3.7l11.3,32.2c5.5-0.9,12.8-1,18.4-3.5c7.4-3.3,5.2-4.5,12.6-4.3
			c1.5,0,9.2-7.6,0.4-7.3c7.5-6.6,21.9,2.8,26.9-6.4c-0.5,7.6,1.3,6.2,0.3,12c1.9-0.3,3.8-0.6,5.7-0.9c1.6-0.6,0.6-4.5,0.4-7.3
			C1007.2,1195.8,1016.3,1189.8,1022.6,1191.6z"/>
		<path class="st0" d="M967.4,1222.6c-0.3-2.4-0.7-4.7-1-7.1c2.9-0.4,5.7-0.9,8.6-1.3c-2.7,6.7,2.8,3.4,5.8,5.4l0.4-0.2l-6-15
			c-11.1,1.5-23.3,3.5-34.9,3.1l9.7,27.7l23.2-11.8C971.2,1221.6,969.7,1219.8,967.4,1222.6z"/>
		<path class="st0" d="M989.5,1202.7l5.9,9.6l30.8-15.6l-2.6-3.7C1014.1,1198.3,1002.8,1200.9,989.5,1202.7z"/>
		<path class="st0" d="M906.5,1111.7l8.6,24.4c1-2.5,1.9-5.1,1.4-9.4c6.4,0.8,17.7,1.9,26.8,1c-0.2-0.6-0.4-1.2-0.7-1.9
			c0.4,0.6,0.7,1.2,1.1,1.8c5.2-0.6,9.6-1.9,11.8-4.3c4.7,4.4,6.6,3.2,8.6,8.4c-3.6-4.9-9.5,8.1-12.2-3c-1.7,1.1-3.6,2.1-5.7,3.1
			c7.4,12.1,14.2,22.8,20.2,32c0-6.2,6.2-11.4,14.4-8.1c-0.5,2-0.9,4-0.4,7.3c2.3,4,7.8,0.7,10.7,3.2c3.3-3.6,3.8-5.5,1.1-12.2
			c1.1-0.7,2-0.9,2.8-0.9l-17.7-25c-3.3,0.8-6.7,2.5-10.8,0.8c2.4-2.3,5-4,7.6-5.2l-24.2-34.1l-43.4,22
			C906.6,1111.6,906.6,1111.6,906.5,1111.7z"/>
	</g>
	<path class="st0" d="M1086.6,1101.4L1058,1066c-7.7-9.6-13.2-15.8-16.5-18.6c-3.2-2.8-7.1-4.6-11.6-5.4c-4.5-0.8-9.4,0.1-14.9,2.5
		c-5.4,2.5-14.5,8.8-27.2,19.1l-19.7,15.9l81.8,101.1l33.2-26.8c6.3-5.1,10.7-9.2,13.3-12.4c2.6-3.2,4.2-6.5,4.9-10
		c0.7-3.4,0.3-7-1.3-10.8C1098.4,1116.9,1093.9,1110.5,1086.6,1101.4z M1004.3,1115.1c-1.6-10.5,8.2-3,7.9,3.7
		C1008,1121.2,1008.5,1112.7,1004.3,1115.1z M1062.3,1142.1l-24.2-29.9c-5.5,1-11.3-2.4-16.2,2.8c-0.4-2.4-0.7-4.7-1-7.1
		c5.2,1.8,8.9,0,12.5-1.7l-23.9-29.6c0,4-2.7,10.2-6.4,9.8c-3.9-10.5,5-5.6,5.6-10.8l0,0c0,0,0,0,0,0c0.1-0.6,0-1.2-0.1-2
		c0.4,0.3,0.6,0.9,0.8,1.5c2.5-2,4.5-3.1,6-3.4c1.5-0.2,3,0.2,4.3,1.2c1.3,1.1,3.9,3.9,7.6,8.5l20,24.8c0.7-5.2,6.9-8.1,7.5,1.5
		c-3,1.2-5.2,0.5-7.1-1l11.3,14c5.5,6.7,8.4,11.2,8.7,13.5C1067.8,1136.4,1066.1,1139,1062.3,1142.1z M1075.2,1119
		c-4.8-0.3-6-9.1-10.3-10.5c0.4-1.6,6.2-5.1,10-1.5C1074.4,1114.7,1076.2,1113.2,1075.2,1119z"/>
	<g>
		<path class="st0" d="M512.4,321.6c0,0,0.1,0,0.1,0.1c2.6,0.7,7,1.5,13.1,2.3C521.5,321.2,516.9,321,512.4,321.6z"/>
		<path class="st0" d="M501.9,315.4c6.7,1.4,13.3,1.6,17.7-7.5c4.4,6.6,8.8,3.4,12.9-1.9c7,6.9-6.8,11.2-2.2,14.8
			c0.9,6.2-4-3.6-2.6,3.4c1.4,0.2,2.9,0.4,4.5,0.6c9.6,1.1,15.9,2.2,18.8,3.3c2.8,1.1,5.9,5,9.3,11.6c1.5,3,2.2,5.5,2,7.5
			c-0.2,2-1.2,3.5-3.2,4.5c-1.9,1-3.6,1.1-5,0.3c-1.4-0.8-3.1-3.3-5.2-7.5l-6.9-13.6l-27,13.7l3.7,7.3c4.3,8.4,8.4,14.4,12.4,18.1
			s9.5,5.6,16.5,5.8c7,0.2,14.4-1.7,22.2-5.7c7.1-3.6,12.7-8,16.7-13.3c4.1-5.3,6.1-10.3,6-15c0-4.7-2.1-11.1-6.1-19.1
			c-2.7-5.4-5.5-9.9-8.3-13.4c-6.4,1.6-12.9,2.3-18,1.4c-0.1,0.3-0.3,0.7-0.4,1c-0.2-0.5-0.4-0.9-0.7-1.3c-0.9-0.2-1.8-0.3-2.6-0.7
			c-1.8,2.4-4,4.2-2.9,10.1c-1.9-6.2-6.5-5.8-7.8-13.3c1.8-2.2,10.2-1.7,13.3,3.9c0.4,0.1,0.7,0.2,1,0.3c1.2-3.3,2.8-5.9,2.2-11.4
			c0.8,0.1,1.8,0.2,2.8,0.3c-6.5-2.2-16.4-3.8-29.9-4.7c-4.6-0.3-8-0.9-10.1-1.9c-4.7,1-10.9-0.7-15-0.4c-1-3.7,0.8-4.3,0.4-7.3
			c3.3,0.3,5.9,0.8,8.4,1.2c-0.4-0.6-0.7-1.3-1.1-2c-1.5-2.9-2.1-5.3-1.9-7.2c0.2-1.9,1.1-3.3,2.9-4.2c1.6-0.8,3-0.9,4.3-0.2
			c1.2,0.7,2.8,3,4.8,6.9l4.2,8.3l10.9-5.5c0.7-1.4,1.4-2.9,1.6-4.8c1.6-0.2,2.5,0.9,3.4,2.2l11-5.6l-2.2-4.4
			c-4.5-8.9-8.6-14.8-12.2-17.6c-3.6-2.8-8.7-4.1-15.3-3.9c-6.6,0.3-13.6,2.3-21.2,6.1c-6.9,3.5-12.3,7.6-16,12.3
			c-3.8,4.7-5.7,9.6-5.9,14.7c-0.2,5.1,1.9,11.9,6.3,20.5C495.4,307.9,498.5,312.3,501.9,315.4z M566.8,339.4
			c-5.8-7.7,7.6-3.2,10-1.5C575.9,349.4,567.8,334.7,566.8,339.4z M568,317.6c0,3.2-2,4.1-1.8,7.5c-4.1,2.4-4.8-3.4-8.9-1.1
			C556.8,313.1,565.1,317.8,568,317.6z M544.7,309c2.1,8.3-3.2,7.8-7.6,8.3C537,307,541.2,313.1,544.7,309z"/>
	</g>
	<g>
		<path class="st0" d="M631.1,318.8c-12.4,1.9-23,3.4-32.6,5.5l8.7,26.1l31-10.3L631.1,318.8z"/>
		<path class="st0" d="M587.2,236.2c3.6-2.3,3.6,4.3,6.4,3.9c0.5-2.6,4.2-5.1,9-6.7l-4.2-12.5l-31,10.3l2.5,7.6
			c-0.1-0.8-0.2-1.6-0.4-2.5c1-1.4,2-2.8,4-3c0.5,3.2,0.9,6.3,1.4,9.4c1-0.1,1.9-0.3,2.9-0.4c-1,7.8-4-3.5-7.2-1.5l4.2,12.6
			c0.8,1.3,1.4,1.8,1.5-1.3c3.9,1.2,1.2,6.1,1.4,10.1l1.9,5.8c0.8,1,1.7,2.5,2.6,4.9c4-1,5.3-5.2,9.4-6.2c-0.7-2.1-7.3-5.3-6.1-1.5
			c-3.5-3.2,2.3-10.1,6.5-5.8c-1.2-8.1-3.7,0.9-5.7-8.8c-3.2,0-4.3,2.6-3.3,7.7C577.8,250.6,584.2,240.3,587.2,236.2z"/>
		<path class="st0" d="M612.1,261.7l-4.7-14.2c-1.2,0.7-2.8,1.5-4.8,3.2c0.1,5.1,2.7,4.2,5,4.1c-3.1,3.3-3.4,10.2-8.6,10.9
			C602.3,271.3,607.3,266.5,612.1,261.7z"/>
		<path class="st0" d="M629.4,313.6l-11.7-35.2c-1.7,0.6-3.3,1.2-4.8,2.1c-0.2-3.6,1.2-5.1,3.7-5.4l-0.9-2.6
			c-3.3-0.9-5.1,12.1-9.3,4.2c-3.6,2.7,5.2,4.6,1.4,9.4c-9.1-8.4-15-8.9-24.1-6.1l12.5,37.6C603.3,325.8,618.5,311.5,629.4,313.6z"
			/>
	</g>
	<g>
		<path class="st0" d="M670.5,289.1l19.6,39.7l28.2-4.8l-21.1-123.7l-26.9,4.6L674,227c1.7-0.8,3.7-1.2,4.8-2.6
			c2.6,6.9-0.8,8.4-3.9,7.9l4.8,28.3l-5.2-10c-2.2,7.3-1.1,13.6-5.5-3.2c1.2-0.2,2.4-0.3,3.5-0.5l-6.8-13c-1.9,3.5-6.6,0.6-8.9,0.9
			c-0.1-4.3,4.4-3,7.6-3.3L652.2,208l-26.9,4.6l12.4,72.3c2.5,1.8,5.2,3.1,8,2.2c-0.6,7.2-3.1,7.2-6.6,6l7.4,43.2l26.9-4.6l-7-40.9
			c-5.1,1.9-10,2.7-17.5-1.8c-0.6-4.2,7-8,1.1-12.2c11.1-4.9,20.3-11,32.3-9.6c-4,12.6-11.7,2.1-18,7.5c2.9,13.2,15.5-2,25.1,1.1
			c-0.1,2.8-1.6,6.4-2.5,2.8c-1.6,2.6,1.2,3.8-1.8,7.5C679,285.8,674.5,287.5,670.5,289.1z M701.8,310c-0.1,2.8-1.6,6.4-2.5,2.8
			c-1.6,0.6-0.6,4.5-0.4,7.3c-1.3-1.1-2.7-2.1-4.7-1.7C692.6,310.3,699.6,307.6,701.8,310z M640,278.3c-1.6-6.4,5-3,4.7-7.9
			c2.2,1.3,3.4,4.7,4.3,9C645.4,280.2,642.1,280.8,640,278.3z M640.5,242.1c-2-6.3,2.2-5.1,1.5-9.8c4.6-0.4,10.6-3.9,11.1,5.6
			C647.3,237.4,646.6,243.1,640.5,242.1z M680.2,253.1c2.6-5.4-4.6-11.5,2.5-12.4C685.6,244,683.7,251.6,680.2,253.1z M688.3,288
			c5.5,7.4-3.6,7.8-7.9,6C681.8,288,688.6,291.6,688.3,288z"/>
		<path class="st0" d="M655.4,283.3c2.3-1.7,8.8,1.6,8.3-3.7C662.3,277.8,652.8,274.8,655.4,283.3z"/>
	</g>
	<g>
		<path class="st0" d="M770.5,290.3c-0.1,2.1-0.2,3.9-0.3,5.5c3.7,1.2,9-0.3,6.8-7.7c5.2,3.7,8-6.4,10.7,3.2c4.9-2,6.6-7.8,6.2-16
			l-23-0.8L770.5,290.3z"/>
		<path class="st0" d="M731.4,217.9c-0.5,0.7-1.1,1.3-1.7,1.8c-0.2,0.7-0.4,1.5-0.5,2.2c-0.8,4.5-1.3,11.3-1.6,20.3l-0.6,17.7
			c3.9-0.3,7.9,0.2,10.7,0.4c-2.6,4.2-6.4,6-11,6.9l-0.4,11.7c-0.4,12.3,0.3,21.5,2.1,27.7c1.8,6.2,5.8,11.1,11.8,14.8
			c6.1,3.7,13.9,5.7,23.5,6c3.1,0.1,6.1-0.1,8.9-0.5c-0.1-0.5-0.2-1.1-0.4-1.8c1.3-1.6,2.6-0.2,3.7,1.3c2.6-0.5,5-1.3,7.3-2.3
			c0.6-5.5,4-10.8,6-13.5c3.6-2.3,3.6,4.3,6.4,3.9c0.3-1.4,1.4-2.7,3.1-3.9c0.4-0.8,0.8-1.5,1.1-2.3c1.4-3.8,2.5-9.6,3.1-17.3
			c-2.1-1.4-1.1-2.4,0.3-3.5c0.1-1.6,0.2-3.3,0.3-5.1c-3.3-0.6-5.6,7.2-2.1,12c-9-1.3-22.7,10.2-31.3,2.9c-0.3,3-0.7,5.2-1.2,6.4
			c-0.8,1.8-2.4,2.7-4.9,2.6c-2.5-0.1-4.1-1.1-4.8-3c-0.2-0.4-0.3-1-0.4-1.7c-4.8,1.1-11.2,0.8-14.9,1.2c2.5-6.4,8.7-5.6,14.6-5.3
			c-0.1-1.8-0.1-3.8,0-6.2l1-31.6c-2.4,0.4-4.6,0.2-6.2-1.6c0.5-7.6-0.7-5.3-2.1-14.1c-3.9-0.9-5,1.7-3.3,7.7
			c-1.2,0.6-1.5-0.7-1.8-2.1c-1,0.1-1.9,0.3-2.9,0.4c0.9-12.6,9.9-11.5,16.9-13.3l0.1-3.7c0.2-6.4,0.7-10.5,1.5-12.4
			c0.8-1.9,2.5-2.8,5.2-2.7c2.4,0.1,3.9,0.9,4.5,2.5c0.6,1.6,0.9,5.6,0.7,11.9l-0.3,10c0.9-0.7,2.1-1.3,4,0.4c1.8-1,0.3-6.1,0-9.6
			c5.1,0,10.3,4.2,16.1,0c0.3,2.3-1.5,2.1-2.5,2.8c-0.7,7.9,4.9,1.1,4.3,9c-6.9,0.8-15.5,0-22.1,2.3l-0.2,7l32.6,1.1l0.4-11.9
			c0.1-3.1,0.1-6,0.1-8.7c-3.3,0.2-7-0.2-10.7,0.5c2.6-5.9,6.4-5.8,10.5-5.5c-0.3-5-0.9-9.2-1.9-12.3c-1.8-5.6-5.7-10.4-11.9-14.3
			c-6.1-3.9-14-6-23.6-6.4c-7.1-0.2-13.4,0.8-18.9,3c-5.5,2.2-9.9,5.4-13.1,9.5c-2.3,2.9-3.9,5.9-4.9,9
			C730.7,217.9,731.1,217.9,731.4,217.9z M775.5,307.6c0.5,3.2,0.9,6.3,1.4,9.4c1-0.1,1.9-0.3,2.9-0.4c-1,8.1-4.2-4.4-7.5-1.3
			c-0.2-1.5-0.5-3.1-0.7-4.7C772.5,309.2,773.5,307.8,775.5,307.6z M784.1,207.7c-4.2,2.4-3.7-6.1-7.9-3.7
			C776.2,199.3,785.7,198.3,784.1,207.7z"/>
	</g>
	<path class="st0" d="M876.6,264.2l-19.9-4.3l5-23.3l6.3,1.4c1.7-1.5,4.6-0.6,9.1-2.4c0.5,2.2,0.4,3.5-0.2,4.4l6.1,1.3l5.3-24.6
		l-53.2-11.5l-8.2,37.9c2.5-1.6,6.2-1.3,7.5,1.2c2.4,8.6-5.9,4.3-9.1,6.1l-16.8,77.5l55.3,12l5.3-24.6l-4.1-0.9
		c1.6,1.7,2.9,4.3,2.7,6.8c-4.2,2.4-3.7-6.1-7.9-3.7c-0.3-2-0.2-3.4,0.2-4.2l-14.4-3.1l5.8-27l6,1.3c0.1-5.3,7.8-1.4,6.4-8.5
		c1.7,1.3,1,6.3-1,9.7l8.5,1.8L876.6,264.2z M827.4,295.9c-3.4,0.6-4.8-3.4-9-1.1C816.1,286.1,828.4,287.5,827.4,295.9z
		 M828.8,305.3c0.7-7.9,7-3.6,9.7-3.8C838.6,306.8,831.6,303.5,828.8,305.3z M839.4,248.4c-0.8-4.2,1-5.2,0-9.6
		c8.7,0.7,16.3-2.3,20.4-0.6C857.5,249.8,849.2,244.2,839.4,248.4z"/>
	<g>
		<path class="st0" d="M281.9,345.1c5.3-0.6,10.8-1.1,16.2-1.6c83.2-96.1,196.4-165.5,324.9-193.3c-0.8-2.1-1.1-4,0.8-5.4
			c-1.4-2.5-2.9-4.2-4.6-5.3c-85.3,18.7-164,55.4-231.8,105.9c1.4,0.1,2.8,0.4,4.2,1.1c-1.8,9.7-6.4,5.5-12.4,5.1
			C343.4,279,310.8,310.5,281.9,345.1z"/>
		<path class="st0" d="M627.4,140.9c3.3,1.9,4.5,4.6,4.4,7.5c1.2-0.2,2.3-0.4,3.5-0.7c-3-4.9,2-9.7,6.6-5.6
			c-1.5-2.6-3.9-2.8-4.9-6.3c-2,0.4-4.1,0.8-6.1,1.2C629.9,138.5,628.9,140,627.4,140.9z"/>
		<path class="st0" d="M288.5,354.8c-7,0.5-13.7,2-19.7,6.6c-16,20.6-30.6,42.2-43.9,64.8c0.7,0.5,1.2,1.3,1.6,2.4
			c2.2-1,0.6-3.5-0.5-3.3c5.6-2.4,11.4-5.1,17.3-7.8C257.1,395.6,272.2,374.7,288.5,354.8z"/>
		<path class="st0" d="M668.9,131.4c2.4,4.6,6.1,6.3,11,5.1c0.8-9.1-4-5.1-6.5-6.4c-1.2,0.2-2.5,0.3-3.7,0.5
			C669.4,130.9,669.2,131.2,668.9,131.4z"/>
		<path class="st0" d="M1273.4,424c-6-10.1-12.3-20-18.8-29.7c-0.5,1.5-1,3.1-1.4,5.1c-4.5-4.1-7.5-11.2-9.3-20.5
			c-106-147-275.8-245.1-468.6-253c-1.9,4.9-7.4-2.4-8.4,4.4c-2.4-0.3-1.6-3.1-0.5-3.3c-0.1-0.5-0.1-1-0.2-1.4
			c-5.4-0.1-10.9-0.3-16.4-0.3c-6.1,0-12.2,0.1-18.3,0.3c6.3,16-10.9,2.8-15.1,8.8c-1.5-15.1,14.5-1.3,15-8.8
			c-16.3,0.5-32.4,1.6-48.3,3.4c2.2,2.1,4.1,5.1,5.3,9.6c-0.2,0.5-0.5,0.9-0.8,1.3c20.5-2.1,41.2-3.2,62.2-3.2
			c53.5,0,105.3,7.1,154.6,20.3c1.1-0.2,2.3-0.3,3.3-0.6c-0.1,0.4-0.1,0.9-0.1,1.4c150.1,41.2,276.8,139.6,355.1,270.3
			C1265.7,427,1269.3,425.7,1273.4,424z"/>
		<path class="st0" d="M206.9,461.8c0.1-1.1,0.1-2.1,0.1-2.9c-12.4,24.3-23.1,49.5-32.2,75.5c4.1-1.4,8.6-2.5,13.1-3.4
			c9.3-25.5,20.2-50.3,32.7-74.1C215.4,458.8,210.6,460.5,206.9,461.8z"/>
		<path class="st0" d="M644.7,134.4c0.5,3.6,1.2,6.6,3.1,6.8c-0.3,1.9-0.7,3.3-1.2,4.4c7-1.2,14.1-2.4,21.3-3.3
			c-1.9-4-3.9-8.2-4.1-10.9C657.4,132.2,651.1,133.3,644.7,134.4z"/>
	</g>
</g>
</svg>
